RBDS018runT45_grf
version=1
nRows=21
nColumns=19
inDegrees=no
endheader
time	ground_force_r_vx	ground_force_r_vy	ground_force_r_vz	ground_force_r_px	ground_force_r_py	ground_force_r_pz	ground_force_r_mx	ground_force_r_my	ground_force_r_mz	ground_force_l_vx	ground_force_l_vy	ground_force_l_vz	ground_force_l_px	ground_force_l_py	ground_force_l_pz	ground_force_l_mx	ground_force_l_my	ground_force_l_mz
      0.00000000	   -107.06064641	   1706.34410680	     30.22979412	      2.26703716	      0.00000000	      0.99336684	      0.00000000	      5.02091755	      0.00000000	      0.00000000	      0.00000000	      0.00000000	      0.00000000	      0.00000000	      0.00000000	      0.00000000	      0.00000000	      0.00000000
      0.00100000	   -113.17792445	   1716.78780669	     32.73057880	      2.26524702	      0.00000000	      0.99322181	      0.00000000	      5.35062885	      0.00000000	      0.00000000	      0.00000000	      0.00000000	      0.00000000	      0.00000000	      0.00000000	      0.00000000	      0.00000000	      0.00000000
      0.00200000	   -119.29520249	   1727.23150658	     35.23136348	      2.26345689	      0.00000000	      0.99307678	      0.00000000	      5.68034014	      0.00000000	      0.00000000	      0.00000000	      0.00000000	      0.00000000	      0.00000000	      0.00000000	      0.00000000	      0.00000000	      0.00000000
      0.00300000	   -125.41248053	   1737.67520647	     37.73214816	      2.26166675	      0.00000000	      0.99293175	      0.00000000	      6.01005144	      0.00000000	      0.00000000	      0.00000000	      0.00000000	      0.00000000	      0.00000000	      0.00000000	      0.00000000	      0.00000000	      0.00000000
      0.00400000	   -131.45015128	   1748.07203613	     40.10605365	      2.25987261	      0.00000000	      0.99279173	      0.00000000	      6.33448645	      0.00000000	      0.00000000	      0.00000000	      0.00000000	      0.00000000	      0.00000000	      0.00000000	      0.00000000	      0.00000000	      0.00000000
      0.00500000	   -137.44801839	   1758.44543067	     42.41651956	      2.25807647	      0.00000000	      0.99265422	      0.00000000	      6.65628331	      0.00000000	      0.00000000	      0.00000000	      0.00000000	      0.00000000	      0.00000000	      0.00000000	      0.00000000	      0.00000000	      0.00000000
      0.00600000	   -143.44588549	   1768.81882521	     44.72698546	      2.25628034	      0.00000000	      0.99251672	      0.00000000	      6.97808017	      0.00000000	      0.00000000	      0.00000000	      0.00000000	      0.00000000	      0.00000000	      0.00000000	      0.00000000	      0.00000000	      0.00000000
      0.00700000	   -149.33213518	   1779.13198578	     46.94557422	      2.25447268	      0.00000000	      0.99238355	      0.00000000	      7.29386290	      0.00000000	      0.00000000	      0.00000000	      0.00000000	      0.00000000	      0.00000000	      0.00000000	      0.00000000	      0.00000000	      0.00000000
      0.00800000	   -154.99515001	   1789.32467839	     48.98040873	      2.25264198	      0.00000000	      0.99225906	      0.00000000	      7.59761738	      0.00000000	      0.00000000	      0.00000000	      0.00000000	      0.00000000	      0.00000000	      0.00000000	      0.00000000	      0.00000000	      0.00000000
      0.00900000	   -160.65816484	   1799.51737101	     51.01524323	      2.25081128	      0.00000000	      0.99213457	      0.00000000	      7.90137185	      0.00000000	      0.00000000	      0.00000000	      0.00000000	      0.00000000	      0.00000000	      0.00000000	      0.00000000	      0.00000000	      0.00000000
      0.01000000	   -166.32117968	   1809.71006362	     53.05007773	      2.24898058	      0.00000000	      0.99201008	      0.00000000	      8.20512633	      0.00000000	      0.00000000	      0.00000000	      0.00000000	      0.00000000	      0.00000000	      0.00000000	      0.00000000	      0.00000000	      0.00000000
      0.01100000	   -171.44394070	   1819.60695208	     54.73432124	      2.24708647	      0.00000000	      0.99190362	      0.00000000	      8.48144865	      0.00000000	      0.00000000	      0.00000000	      0.00000000	      0.00000000	      0.00000000	      0.00000000	      0.00000000	      0.00000000	      0.00000000
      0.01200000	   -176.56670173	   1829.50384053	     56.41856475	      2.24519236	      0.00000000	      0.99179717	      0.00000000	      8.75777096	      0.00000000	      0.00000000	      0.00000000	      0.00000000	      0.00000000	      0.00000000	      0.00000000	      0.00000000	      0.00000000	      0.00000000
      0.01300000	   -181.68946276	   1839.40072899	     58.10280825	      2.24329825	      0.00000000	      0.99169072	      0.00000000	      9.03409328	      0.00000000	      0.00000000	      0.00000000	      0.00000000	      0.00000000	      0.00000000	      0.00000000	      0.00000000	      0.00000000	      0.00000000
      0.01400000	   -186.32688579	   1849.02126444	     59.51280936	      2.24134332	      0.00000000	      0.99159918	      0.00000000	      9.28659984	      0.00000000	      0.00000000	      0.00000000	      0.00000000	      0.00000000	      0.00000000	      0.00000000	      0.00000000	      0.00000000	      0.00000000
      0.01500000	   -190.72163982	   1858.50362339	     60.78568928	      2.23935797	      0.00000000	      0.99151510	      0.00000000	      9.52719853	      0.00000000	      0.00000000	      0.00000000	      0.00000000	      0.00000000	      0.00000000	      0.00000000	      0.00000000	      0.00000000	      0.00000000
      0.01600000	   -195.11639385	   1867.98598234	     62.05856919	      2.23737263	      0.00000000	      0.99143102	      0.00000000	      9.76779721	      0.00000000	      0.00000000	      0.00000000	      0.00000000	      0.00000000	      0.00000000	      0.00000000	      0.00000000	      0.00000000	      0.00000000
      0.01700000	   -199.21390469	   1877.28974306	     63.17985347	      2.23534832	      0.00000000	      0.99135555	      0.00000000	      9.99419244	      0.00000000	      0.00000000	      0.00000000	      0.00000000	      0.00000000	      0.00000000	      0.00000000	      0.00000000	      0.00000000	      0.00000000
      0.01800000	   -202.71692916	   1886.23630731	     63.99794651	      2.23324608	      0.00000000	      0.99129730	      0.00000000	     10.19218077	      0.00000000	      0.00000000	      0.00000000	      0.00000000	      0.00000000	      0.00000000	      0.00000000	      0.00000000	      0.00000000	      0.00000000
      0.01900000	   -206.21995364	   1895.18287157	     64.81603954	      2.23114384	      0.00000000	      0.99123905	      0.00000000	     10.39016910	     -0.00000000	      0.00000000	      0.00000000	      0.00000000	      0.00000000	      0.00000000	      0.00000000	      0.00000000	      0.00000000	      0.00000000
      0.02000000	   -209.72297811	   1904.12943582	     65.63413258	      2.22904161	      0.00000000	      0.99118080	      0.00000000	     10.58815743	     -0.00000000	      0.00000000	      0.00000000	      0.00000000	      0.00000000	      0.00000000	      0.00000000	      0.00000000	      0.00000000	      0.00000000
